# xmcd CD database file
#
# Track frame offsets:
#	150
#	18458
#	37755
#	54955
#	69529
#	94383
#	108287
#	125672
#	142537
#	158522
#	179683
#	195662
#	213832
#	227804
#	247247
#
# Disc length: 3515 seconds
#
# Revision: 2
# Processed by: cddbd v1.5.1PL0 Copyright (c) Steve Scherf et al.
# Submitted via: CDex 1.50Beta7
#
DISCID=c80db90f
DTITLE=Rick and Renner - Seguir em Frente
DYEAR=2000
DGENRE=Sertanejo
TTITLE0=Seguir em Frente
TTITLE1=Estou me Desligando de Você
TTITLE2=Maravilhosa
TTITLE3=Marcas de Batom
TTITLE4=Da Terra ao Céu
TTITLE5=Coisas do Coração
TTITLE6=Sai de Mim
TTITLE7=To Por Aí
TTITLE8=Remelexo
TTITLE9=Eterna Paixão
TTITLE10=Pra Ficar Dez
TTITLE11=Loucuras de Amor
TTITLE12=Peão que é Peão
TTITLE13=Vou te Esperar
TTITLE14=Meu Coração Pirou
EXTD=YEAR: 2000
EXTT0=
EXTT1=
EXTT2=
EXTT3=
EXTT4=
EXTT5=
EXTT6=
EXTT7=
EXTT8=
EXTT9=
EXTT10=
EXTT11=
EXTT12=
EXTT13=
EXTT14=
PLAYORDER=
